# xmcd CD database file
#
# Track frame offsets:
#	150
#	17930
#	41709
#	58752
#	86986
#	110637
#	132534
#
# Disc length: 2228 seconds
#
# Revision: 0
# Processed by: cddbd v1.5.1PL0 Copyright (c) Steve Scherf et al.
# Submitted via: CDex 1.51
#
DISCID=6808b207
DTITLE=Tony Vecchio - Rock-Veg-Ford-As
DYEAR=2004
DGENRE=Jazz
TTITLE0=Time Will Tell
TTITLE1=Mr. Magic
TTITLE2=Red Clay
TTITLE3=My Funny Valentine
TTITLE4=Creepin'
TTITLE5=Tango in Blue
TTITLE6=Fool for your Stockings
EXTD=YEAR: 2004
EXTT0=
EXTT1=
EXTT2=
EXTT3=
EXTT4=
EXTT5=
EXTT6=
PLAYORDER=
